<svg width="155" height="95" viewBox="0 0 155 95" fill="none" xmlns="http://www.w3.org/2000/svg">
<g clip-path="url(#clip0_545_12526)">
<path d="M88 71C88 73.2091 86.2091 75 84 75H46C43.7909 75 42 73.2091 42 71V41.4323C42 40.1809 42.5856 39.0016 43.5827 38.2454L62.5826 23.8336C64.0118 22.7495 65.988 22.7495 67.4173 23.8336L86.4173 38.2454C87.4144 39.0016 88 40.1809 88 41.4323V71Z" fill="#FF72A8"/>
<path d="M113 71C113 73.2091 111.209 75 109 75H78C75.7909 75 74 73.2091 74 71V4C74 1.79087 75.7909 0 78 0H109C111.209 0 113 1.79086 113 4V71Z" fill="#519ADE"/>
<path d="M74 29V75H84C86.2091 75 88 73.2091 88 71V41.6928C88 40.4477 87.4202 39.2735 86.4315 38.5167L74 29Z" fill="#9654BA"/>
<path d="M1 75H154" stroke="#191A1C" stroke-width="1.41053" stroke-miterlimit="10" stroke-linecap="round" stroke-linejoin="round"/>
<path d="M9.75935 88.052H11.1699C10.7749 90.1537 9.0964 91.1128 6.91009 91.1128C3.51072 91.1128 1.87451 88.8278 1.87451 86.0349C1.87451 83.1716 3.58124 81.0276 6.78314 81.0276C8.91303 81.0276 10.7326 81.9585 11.0429 84.1307H9.6324C9.43493 82.5368 8.34882 81.5354 6.72672 81.5354C4.31472 81.5354 3.34145 83.8063 3.34145 86.0491C3.34145 88.4328 4.46987 90.6051 6.81135 90.6051C8.32061 90.6051 9.49135 89.7446 9.75935 88.052ZM13.0534 91V84.2295H14.1818L17.0311 89.5895L19.6405 84.2295H21.0511V91H19.6405V85.5695L17.2003 90.7179H16.1848L13.6035 85.6541V91H13.0534ZM26.2038 84.1448C28.0375 84.1448 29.0954 85.0194 29.0954 86.5992V91H28.2491L27.9105 90.0832C27.4451 90.732 26.6834 91.0987 25.5973 91.0987C24.2291 91.0987 23.0442 90.5063 23.0442 89.1804C23.0442 87.7276 24.4688 87.1775 26.3307 87.1775C26.8103 87.1775 27.2899 87.2198 27.7272 87.2903V86.6274C27.7272 85.3438 27.2617 84.6526 26.1897 84.6526C25.2728 84.6526 24.5112 85.1886 24.5112 86.2888H23.284C23.284 84.8783 24.5394 84.1448 26.2038 84.1448ZM24.356 89.1663C24.356 90.0973 25.1036 90.5204 25.9499 90.5204C27.0078 90.5204 27.572 89.8857 27.7272 88.588V87.7558C27.4168 87.7135 27.0501 87.6712 26.6834 87.6712C25.3293 87.6712 24.356 88.0943 24.356 89.1663ZM31.4977 94.5263V84.2295H32.3722L32.6684 85.3156C33.1621 84.5821 33.952 84.1307 34.9958 84.1307C36.9141 84.1307 38.2823 85.6823 38.2823 87.6429C38.2823 89.6318 36.9 91.0987 34.9958 91.0987C34.0789 91.0987 33.3596 90.7602 32.8659 90.1678V94.5263H31.4977ZM32.8236 87.6147C32.8236 89.4202 33.5711 90.5909 34.7842 90.5909C36.0114 90.5909 36.8859 89.4202 36.8859 87.6288C36.8859 85.8375 35.9973 84.6385 34.7842 84.6385C33.557 84.6385 32.8236 85.8093 32.8236 87.6147ZM39.1107 84.7796V84.2295H46.0081V84.7796H43.2576V91H41.8471V84.7796H39.1107ZM57.7357 84.2295V91H56.3251V87.784H52.7988V91H51.3883V84.2295H52.7988V87.2339H56.3251V84.2295H57.7357ZM63.0973 84.1307C64.8746 84.1307 66.4262 85.2168 66.4544 87.1916V87.7699H61.0097C61.0521 89.4907 61.983 90.6333 63.2102 90.6333C64.1552 90.6333 64.9451 89.9139 65.1708 88.9406H66.4685C66.2428 90.2665 64.7617 91.0987 63.1537 91.0987C61.0238 91.0987 59.6133 89.6459 59.6133 87.6288C59.6133 85.5836 61.0521 84.1307 63.0973 84.1307ZM63.1114 84.6103C62.0676 84.6103 61.1649 85.6259 61.0238 87.1916H65.1708C65.1426 85.6964 64.0988 84.6103 63.1114 84.6103ZM67.3074 93.1158V90.4499H68.3371C68.7038 90.0408 69.0141 88.9971 69.1552 87.6288L69.4937 84.2295H74.3036V90.4499H75.5449V93.1158H74.5575L74.1767 91H68.6756L68.2948 93.1158H67.3074ZM70.1285 87.4878C69.9733 89.0958 69.7476 89.9844 69.4091 90.4499H72.8931V84.7796H70.3824L70.1285 87.4878ZM77.2434 91V84.2295H80.0785C82.0533 84.2295 82.7585 85.0335 82.7585 85.9785C82.7585 86.712 82.3636 87.2621 81.3339 87.5019C82.5469 87.7276 83.1394 88.3341 83.1394 89.1522C83.1394 90.1819 82.1238 91 80.149 91H77.2434ZM80.149 87.784H78.6116V90.4076H80.149C81.1082 90.4076 81.8135 89.9139 81.8135 89.1099C81.8135 88.32 81.1082 87.784 80.149 87.784ZM80.0785 84.836H78.6116V87.2339H80.0785C81.0377 87.2339 81.5596 86.7402 81.5596 86.0208C81.5596 85.2874 81.0377 84.836 80.0785 84.836ZM91.2891 84.2295V91H89.8786V85.7246L86.1407 91H85.0123V84.2295H86.4228V89.5331L90.1607 84.2295H91.2891ZM101.237 91L99.0785 87.784H98.4438V91H97.0756V87.784H96.4408L94.2827 91H92.717L95.6227 87.1634L93.1966 84.2295H94.2404L96.3985 87.2339H97.0756V84.2295H98.4438V87.2339H99.1208L101.279 84.2295H102.323L99.8966 87.1634L102.802 91H101.237ZM110.505 84.2295V91H109.094V85.7246L105.356 91H104.228V84.2295H105.638V89.5331L109.376 84.2295H110.505ZM112.906 91V84.2295H114.034L116.884 89.5895L119.493 84.2295H120.904V91H119.493V85.5695L117.053 90.7179H116.037L113.456 85.6541V91H112.906ZM122.77 87.6147C122.77 85.5836 124.223 84.1307 126.24 84.1307C128.285 84.1307 129.738 85.6259 129.738 87.6288C129.738 89.6459 128.285 91.0987 126.254 91.0987C124.223 91.0987 122.77 89.6459 122.77 87.6147ZM124.166 87.6147C124.166 89.4202 125.041 90.6333 126.254 90.6333C127.453 90.6333 128.327 89.4202 128.327 87.6147C128.327 85.8375 127.453 84.6103 126.254 84.6103C125.041 84.6103 124.166 85.8093 124.166 87.6147ZM132.473 87.6147C132.473 89.4202 133.418 90.6333 134.645 90.6333C135.548 90.6333 136.323 90.0691 136.549 88.8137H137.79C137.537 90.2947 136.168 91.0987 134.574 91.0987C132.515 91.0987 131.062 89.6459 131.062 87.6147C131.062 85.5836 132.515 84.1307 134.532 84.1307C136.14 84.1307 137.522 85.0053 137.776 86.4158H136.549C136.323 85.3156 135.562 84.6103 134.631 84.6103C133.418 84.6103 132.473 85.8234 132.473 87.6147ZM138.702 84.7796V84.2295H145.599V84.7796H142.848V91H141.438V84.7796H138.702ZM147.219 91V84.2295H148.587V86.8813H149.814C151.775 86.8813 152.804 87.7558 152.804 88.9406C152.804 90.1396 151.789 91 149.814 91H147.219ZM149.814 90.4076C150.773 90.4076 151.464 89.8434 151.464 88.9406C151.464 88.0379 150.773 87.4314 149.814 87.4314H148.587V90.4076H149.814Z" fill="#040606"/>
</g>
<defs>
<clipPath id="clip0_545_12526">
<rect width="155" height="95" fill="white"/>
</clipPath>
</defs>
</svg>
