<svg width="14" height="14" viewBox="0 0 14 14" fill="none" xmlns="http://www.w3.org/2000/svg">
<path fill-rule="evenodd" clip-rule="evenodd" d="M7 1.5C3.96243 1.5 1.5 3.96243 1.5 7C1.5 10.0376 3.96243 12.5 7 12.5C10.0376 12.5 12.5 10.0376 12.5 7C12.5 3.96243 10.0376 1.5 7 1.5ZM0 7C0 3.13401 3.13401 0 7 0C10.866 0 14 3.13401 14 7C14 10.866 10.866 14 7 14C3.13401 14 0 10.866 0 7Z" fill="#99A2AD"/>
<path fill-rule="evenodd" clip-rule="evenodd" d="M6.25 3C6.66421 3 7 3.33579 7 3.75V7.26707L9.31035 8.31722C9.68744 8.48863 9.85418 8.93327 9.68277 9.31035C9.51137 9.68744 9.06673 9.85418 8.68965 9.68278L5.93965 8.43278C5.6719 8.31107 5.5 8.04411 5.5 7.75V3.75C5.5 3.33579 5.83579 3 6.25 3Z" fill="#99A2AD"/>
</svg>
