<svg width="20" height="19" viewBox="0 0 20 19" fill="none" xmlns="http://www.w3.org/2000/svg">
<path fill-rule="evenodd" clip-rule="evenodd" d="M8.45775 0.500034H11.5422C11.8301 0.500034 12.067 0.497701 12.2953 0.531747C13.0054 0.637632 13.651 1.00314 14.1071 1.55756C14.3508 1.85373 14.5088 2.20494 14.7237 2.51998C14.9159 2.80167 15.2278 2.9783 15.5683 2.99817C15.8606 3.01523 16.1537 2.98936 16.4461 3.01543C18.3266 3.18299 19.817 4.67342 19.9846 6.55388C20.0001 6.72746 20 6.92287 20 7.19552L20 11.239C20 12.3261 20 13.1967 19.9425 13.9005C19.8835 14.6232 19.7593 15.2487 19.4659 15.8246C18.9961 16.7466 18.2465 17.4962 17.3245 17.966C16.7487 18.2594 16.1231 18.3835 15.4005 18.4425C14.6967 18.5 13.826 18.5 12.7389 18.5H7.26106C6.17398 18.5 5.3033 18.5 4.59953 18.4425C3.87686 18.3835 3.2513 18.2594 2.67546 17.966C1.75346 17.4962 1.00386 16.7466 0.534077 15.8246C0.24067 15.2487 0.11654 14.6232 0.0574956 13.9005C-4.93973e-06 13.1967 6.85923e-08 12.3261 8.11522e-06 11.239C8.11522e-06 9.89117 0.000210309 8.54337 4.30052e-06 7.19556C-3.784e-05 6.92289 -6.80592e-05 6.72748 0.0154004 6.55389C0.182964 4.67342 1.67339 3.18299 3.55386 3.01543C3.84612 2.98938 4.13951 3.01522 4.4317 2.99817C4.77213 2.9783 5.08409 2.80167 5.27628 2.51998C5.49122 2.20493 5.64924 1.85371 5.89293 1.55753C6.34905 1.00314 6.99459 0.637637 7.70465 0.531751C7.93299 0.4977 8.16988 0.500034 8.45775 0.500034ZM8.45775 2.30003C8.11406 2.30003 8.03516 2.30237 7.97014 2.31206C7.70081 2.35223 7.45595 2.49087 7.28293 2.70115C7.07625 2.95236 6.9464 3.26589 6.76318 3.53444C6.2565 4.27707 5.43406 4.74273 4.53658 4.79511C4.26278 4.81109 3.98693 4.78397 3.71362 4.80832C2.70107 4.89855 1.89852 5.70109 1.8083 6.71365C1.8009 6.79661 1.80001 6.90488 1.80001 7.2395V11.2C1.80001 12.335 1.80071 13.1321 1.85152 13.7539C1.90147 14.3653 1.99532 14.7276 2.13789 15.0074C2.4351 15.5907 2.90934 16.0649 3.49264 16.3622C3.77244 16.5047 4.13475 16.5986 4.74611 16.6485C5.36796 16.6993 6.16505 16.7 7.30001 16.7H12.7C13.8349 16.7 14.632 16.6993 15.2539 16.6485C15.8652 16.5986 16.2276 16.5047 16.5074 16.3622C17.0907 16.0649 17.5649 15.5907 17.8621 15.0074C18.0047 14.7276 18.0985 14.3653 18.1485 13.7539C18.1993 13.1321 18.2 12.335 18.2 11.2V7.23951C18.2 6.90488 18.1991 6.79661 18.1917 6.71364C18.1015 5.70109 17.2989 4.89855 16.2864 4.80832C16.0131 4.78397 15.7372 4.81109 15.4634 4.79511C14.5659 4.74273 13.7435 4.27707 13.2368 3.53443C13.0536 3.26592 12.9237 2.95231 12.7171 2.70116C12.5441 2.49087 12.2992 2.35223 12.0298 2.31206C11.9648 2.30237 11.8859 2.30003 11.5422 2.30003H8.45775Z" fill="#3F8AE0"/>
<path fill-rule="evenodd" clip-rule="evenodd" d="M10 7.30003C8.50884 7.30003 7.30001 8.50887 7.30001 10C7.30001 11.4912 8.50884 12.7 10 12.7C11.4912 12.7 12.7 11.4912 12.7 10C12.7 8.50887 11.4912 7.30003 10 7.30003ZM5.50001 10C5.50001 7.51475 7.51473 5.50003 10 5.50003C12.4853 5.50003 14.5 7.51475 14.5 10C14.5 12.4853 12.4853 14.5 10 14.5C7.51473 14.5 5.50001 12.4853 5.50001 10Z" fill="#3F8AE0"/>
</svg>
