<svg width="16" height="17" viewBox="0 0 16 17" fill="none" xmlns="http://www.w3.org/2000/svg">
<path d="M0.292893 0.792893C0.683418 0.402369 1.31658 0.402369 1.70711 0.792893L8 7.085L14.2929 0.792893C14.6534 0.432409 15.2206 0.40468 15.6129 0.709704L15.7071 0.792893C16.0976 1.18342 16.0976 1.81658 15.7071 2.20711L9.415 8.5L15.7071 14.7929C16.0676 15.1534 16.0953 15.7206 15.7903 16.1129L15.7071 16.2071C15.3166 16.5976 14.6834 16.5976 14.2929 16.2071L8 9.915L1.70711 16.2071C1.34662 16.5676 0.779392 16.5953 0.387101 16.2903L0.292893 16.2071C-0.0976309 15.8166 -0.0976309 15.1834 0.292893 14.7929L6.585 8.5L0.292893 2.20711C-0.0675905 1.84662 -0.0953204 1.27939 0.209704 0.887101L0.292893 0.792893Z" fill="#3F8AE0"/>
</svg>
