<svg width="20" height="20" viewBox="0 0 20 20" fill="none" xmlns="http://www.w3.org/2000/svg">
<path fill-rule="evenodd" clip-rule="evenodd" d="M14.0741 1.88007C13.6902 1.74856 13.2683 1.74903 12.7662 1.74958H7.23286C6.73073 1.74903 6.30887 1.74856 5.92495 1.88007C5.18117 2.13484 4.56205 2.80511 4.36699 3.56673C4.30767 3.79833 4.29425 4.02889 4.30076 4.27278C3.91591 4.21724 3.51977 4.26295 3.15847 4.40747C2.33214 4.738 1.74951 5.54929 1.74951 6.66632C1.74951 8.63226 3.49419 10.4379 5.67397 10.7134C6.18518 11.8308 6.92 12.9049 7.9967 13.5396C7.98204 14.0633 7.93099 14.6488 7.5658 15.0566C7.4007 15.241 7.21663 15.4049 7.0759 15.6106C6.86575 15.9176 6.74951 16.2791 6.74951 16.7497L6.74952 17.4997C6.74952 17.9139 7.08531 18.2497 7.49952 18.2497H12.4995C12.9137 18.2497 13.2495 17.9139 13.2495 17.4997L13.2495 16.7497C13.2495 16.2791 13.1333 15.9176 12.9231 15.6106C12.7824 15.4049 12.5983 15.241 12.4332 15.0566C12.068 14.6488 12.017 14.0633 12.0023 13.5396C13.079 12.9049 13.8138 11.8308 14.3251 10.7134C16.5048 10.4379 18.2495 8.63226 18.2495 6.66632C18.2495 5.54929 17.6669 4.738 16.8406 4.40747C16.4793 4.26295 16.0831 4.21724 15.6983 4.27278C15.7048 4.02889 15.6914 3.79833 15.632 3.56673C15.437 2.80511 14.8179 2.13484 14.0741 1.88007ZM7.33285 3.24966C6.67633 3.24966 6.52702 3.25939 6.41104 3.29912C6.14538 3.39012 5.88976 3.66686 5.82009 3.93889C5.78913 4.05974 5.79011 4.18622 5.83667 4.77219C6.02562 7.15021 6.51707 9.15995 7.26653 10.5496C8.01222 11.9324 8.93562 12.583 9.99951 12.583C11.0634 12.583 11.9868 11.9324 12.7325 10.5496C13.482 9.15995 13.9734 7.15021 14.1624 4.77218C14.2089 4.18622 14.2099 4.05974 14.1789 3.93889C14.1093 3.66686 13.8536 3.39012 13.588 3.29912C13.472 3.25939 13.3227 3.24966 12.6662 3.24966H7.33285ZM3.71555 5.80019C3.50022 5.88632 3.24951 6.11668 3.24951 6.66632C3.24951 7.56406 3.96561 8.56822 5.05208 9.01426C4.79824 8.13925 4.607 7.18286 4.47501 6.17181C4.46457 6.09181 4.45935 6.05182 4.42927 5.99038C4.30176 5.72992 3.95897 5.70282 3.71555 5.80019ZM16.2835 5.80019C16.4988 5.88632 16.7495 6.11668 16.7495 6.66632C16.7495 7.56406 16.0334 8.56822 14.9469 9.01426C15.2008 8.13925 15.392 7.18286 15.524 6.17181C15.5345 6.09181 15.5397 6.05182 15.5698 5.99038C15.6973 5.72993 16.0389 5.70236 16.2835 5.80019ZM8.68322 16.0573C8.56361 16.1909 8.41529 16.3094 8.31375 16.4578C8.28952 16.4932 8.24951 16.5535 8.24951 16.7496L11.7495 16.7497C11.7495 16.5535 11.7095 16.4932 11.6853 16.4578C11.5837 16.3094 11.4354 16.1909 11.3158 16.0573C10.8141 15.497 10.5995 14.7852 10.5306 14.0488C10.1861 14.0939 9.81291 14.0939 9.46847 14.0488C9.3995 14.7852 9.18493 15.497 8.68322 16.0573Z" fill="#99A2AD"/>
</svg>
