<svg width="28" height="28" viewBox="0 0 28 28" fill="none" xmlns="http://www.w3.org/2000/svg">
<path fill-rule="evenodd" clip-rule="evenodd" d="M8.71967 8.71967C9.01256 8.42678 9.48744 8.42678 9.78033 8.71967L14 12.9393L18.2197 8.71967C18.5126 8.42678 18.9874 8.42678 19.2803 8.71967C19.5732 9.01256 19.5732 9.48744 19.2803 9.78033L15.0607 14L19.2803 18.2197C19.5732 18.5126 19.5732 18.9874 19.2803 19.2803C18.9874 19.5732 18.5126 19.5732 18.2197 19.2803L14 15.0607L9.78033 19.2803C9.48744 19.5732 9.01256 19.5732 8.71967 19.2803C8.42678 18.9874 8.42678 18.5126 8.71967 18.2197L12.9393 14L8.71967 9.78033C8.42678 9.48744 8.42678 9.01256 8.71967 8.71967Z" fill="#FF3347"/>
</svg>
