<svg width="10" height="12" viewBox="0 0 10 12" fill="none" xmlns="http://www.w3.org/2000/svg">
<path d="M9 0C8.44771 0 8 0.447715 8 1V11C8 11.5523 8.44771 12 9 12C9.55229 12 10 11.5523 10 11V1C10 0.447715 9.55229 0 9 0Z" fill="#818C99"/>
<path d="M4 3.5C4 2.94772 4.44772 2.5 5 2.5C5.55228 2.5 6 2.94772 6 3.5V11C6 11.5523 5.55228 12 5 12C4.44772 12 4 11.5523 4 11V3.5Z" fill="#818C99"/>
<path d="M0 6C0 5.44772 0.447715 5 1 5C1.55228 5 2 5.44772 2 6V11C2 11.5523 1.55228 12 1 12C0.447715 12 0 11.5523 0 11V6Z" fill="#818C99"/>
</svg>
