<svg width="28" height="29" viewBox="0 0 28 29" fill="none" xmlns="http://www.w3.org/2000/svg">
<path fill-rule="evenodd" clip-rule="evenodd" d="M17.6428 25.5H15C14.4477 25.5 14 25.0523 14 24.5C14 23.9477 14.4477 23.5 15 23.5H17.6C18.7366 23.5 19.5289 23.4992 20.1458 23.4488C20.7509 23.3994 21.0986 23.3072 21.362 23.173C21.9265 22.8854 22.3854 22.4265 22.673 21.862C22.8072 21.5986 22.8994 21.2509 22.9488 20.6458C22.9992 20.0289 23 19.2366 23 18.1V10.9C23 9.76339 22.9992 8.97108 22.9488 8.35424C22.8994 7.74907 22.8072 7.40138 22.673 7.13803C22.3854 6.57354 21.9265 6.1146 21.362 5.82698C21.0986 5.6928 20.7509 5.60062 20.1458 5.55118C19.5289 5.50078 18.7366 5.5 17.6 5.5H15C14.4477 5.5 14 5.05228 14 4.5C14 3.94772 14.4477 3.5 15 3.5H17.6428H17.6429C18.7267 3.49999 19.6008 3.49998 20.3086 3.55782C21.0375 3.61737 21.6777 3.74318 22.27 4.04497C23.2108 4.52433 23.9757 5.28924 24.455 6.23005C24.7568 6.82234 24.8826 7.46253 24.9422 8.19138C25 8.89926 25 9.77341 25 10.8572V18.1428C25 19.2266 25 20.1007 24.9422 20.8086C24.8826 21.5375 24.7568 22.1777 24.455 22.77C23.9757 23.7108 23.2108 24.4757 22.27 24.955C21.6777 25.2568 21.0375 25.3826 20.3086 25.4422C19.6007 25.5 18.7266 25.5 17.6428 25.5ZM3 14.5C3 13.9477 3.44772 13.5 4 13.5H13.5858L11.2929 11.2071C10.9024 10.8166 10.9024 10.1834 11.2929 9.79289C11.6834 9.40237 12.3166 9.40237 12.7071 9.79289L16.7064 13.7922C16.7088 13.7946 16.7112 13.797 16.7136 13.7995C16.8063 13.8938 16.8764 14.002 16.9241 14.1172C16.9727 14.2343 16.9996 14.3625 17 14.497C17 14.498 17 14.499 17 14.5C17 14.501 17 14.502 17 14.503C16.9992 14.7746 16.8901 15.0208 16.7136 15.2005C16.7112 15.203 16.7088 15.2054 16.7064 15.2078L12.7071 19.2071C12.3166 19.5976 11.6834 19.5976 11.2929 19.2071C10.9024 18.8166 10.9024 18.1834 11.2929 17.7929L13.5858 15.5H4C3.44772 15.5 3 15.0523 3 14.5Z" fill="#3F8AE0"/>
</svg>
