<svg width="28" height="29" viewBox="0 0 28 29" fill="none" xmlns="http://www.w3.org/2000/svg">
<path d="M14.0046 4C18.5359 4 22 7.79407 22 12.5815L21.9954 14.4081C21.9958 14.7154 22.1946 15.0707 22.7335 15.705C22.8012 15.7847 22.8649 15.8585 23.0043 16.0195C24.0744 17.2577 24.5 17.9745 24.5 19.0882C24.5 19.5893 24.443 19.9785 24.2056 20.4456C23.6996 21.4409 22.6182 22 21 22L18.3989 22.0007C17.731 24.2645 16.2123 25.5 14 25.5C11.7877 25.5 10.269 24.2645 9.60115 22.0007L7 22C5.33483 22 4.24203 21.4258 3.75797 20.3962C3.54802 19.9497 3.5 19.5875 3.5 19.0882C3.5 17.975 3.92475 17.2582 4.99283 16.0202C5.13191 15.8592 5.19552 15.7854 5.26308 15.7057C5.80171 15.0706 6 14.7151 6 14.4071V12.5789C6 7.79571 9.47202 4 14.0046 4ZM16.2794 22.0008H11.7206C12.1714 23.0432 12.8987 23.5 14 23.5C15.1013 23.5 15.8286 23.0432 16.2794 22.0008ZM14.0046 6C10.6184 6 8 8.86245 8 12.5789V14.4071C8 15.3348 7.6156 16.0239 6.78841 16.9993C6.71509 17.0857 6.64587 17.1661 6.50717 17.3266C5.74712 18.2076 5.5 18.6246 5.5 19.0882C5.5 19.3144 5.51597 19.4348 5.56791 19.5453C5.69184 19.8089 6.05558 20 7 20H21C21.9142 20 22.2863 19.8076 22.4228 19.5392C22.4818 19.423 22.5 19.2989 22.5 19.0882C22.5 18.6251 22.2524 18.2081 21.4911 17.3273C21.3522 17.1668 21.2828 17.0864 21.2094 17C20.3806 16.0245 19.9954 15.3353 19.9954 14.4071L20 12.5789C20 8.86008 17.3886 6 14.0046 6Z" fill="#3F8AE0"/>
</svg>
