<svg width="155" height="95" viewBox="0 0 155 95" fill="none" xmlns="http://www.w3.org/2000/svg">
<g clip-path="url(#clip0_640_12074)">
<path d="M88 71.001C88 73.2101 86.2091 75.001 84 75.001H46C43.7909 75.001 42 73.2101 42 71.001V41.4333C42 40.1819 42.5856 39.0026 43.5827 38.2464L62.5826 23.8346C64.0118 22.7505 65.988 22.7505 67.4173 23.8346L86.4173 38.2464C87.4144 39.0026 88 40.1819 88 41.4333V71.001Z" fill="#FFA000"/>
<path d="M113 71C113 73.2091 111.209 75 109 75H78C75.7909 75 74 73.2091 74 71V4C74 1.79087 75.7909 0 78 0H109C111.209 0 113 1.79086 113 4V71Z" fill="#6DAE6D"/>
<path d="M74 29V75H84C86.2091 75 88 73.2091 88 71V41.6928C88 40.4477 87.4202 39.2735 86.4315 38.5167L74 29Z" fill="#4E7C3C"/>
<path d="M1 75H154" stroke="#191A1C" stroke-width="1.41053" stroke-miterlimit="10" stroke-linecap="round" stroke-linejoin="round"/>
<path d="M9.69319 88.0736H11.0932C10.7012 90.1596 9.03519 91.1116 6.86519 91.1116C3.49119 91.1116 1.86719 88.8436 1.86719 86.0716C1.86719 83.2296 3.56119 81.1016 6.73919 81.1016C8.85319 81.1016 10.6592 82.0256 10.9672 84.1816H9.56719C9.37119 82.5996 8.29319 81.6056 6.68319 81.6056C4.28919 81.6056 3.32319 83.8596 3.32319 86.0856C3.32319 88.4516 4.44319 90.6076 6.76719 90.6076C8.26519 90.6076 9.42719 89.7536 9.69319 88.0736ZM12.9626 90.9996V84.2796H14.0826L16.9106 89.5996L19.5006 84.2796H20.9006V90.9996H19.5006V85.6096L17.0786 90.7196H16.0706L13.5086 85.6936V90.9996H12.9626ZM26.0149 84.1956C27.8349 84.1956 28.8849 85.0636 28.8849 86.6316V90.9996H28.0449L27.7089 90.0896C27.2469 90.7336 26.4909 91.0976 25.4129 91.0976C24.0549 91.0976 22.8789 90.5096 22.8789 89.1936C22.8789 87.7516 24.2929 87.2056 26.1409 87.2056C26.6169 87.2056 27.0929 87.2476 27.5269 87.3176V86.6596C27.5269 85.3856 27.0649 84.6996 26.0009 84.6996C25.0909 84.6996 24.3349 85.2316 24.3349 86.3236H23.1169C23.1169 84.9236 24.3629 84.1956 26.0149 84.1956ZM24.1809 89.1796C24.1809 90.1036 24.9229 90.5236 25.7629 90.5236C26.8129 90.5236 27.3729 89.8936 27.5269 88.6056V87.7796C27.2189 87.7376 26.8549 87.6956 26.4909 87.6956C25.1469 87.6956 24.1809 88.1156 24.1809 89.1796ZM31.2693 94.4996V84.2796H32.1373L32.4313 85.3576C32.9213 84.6296 33.7053 84.1816 34.7413 84.1816C36.6453 84.1816 38.0033 85.7216 38.0033 87.6676C38.0033 89.6416 36.6313 91.0976 34.7413 91.0976C33.8313 91.0976 33.1173 90.7616 32.6273 90.1736V94.4996H31.2693ZM32.5853 87.6396C32.5853 89.4316 33.3273 90.5936 34.5313 90.5936C35.7493 90.5936 36.6173 89.4316 36.6173 87.6536C36.6173 85.8756 35.7353 84.6856 34.5313 84.6856C33.3133 84.6856 32.5853 85.8476 32.5853 87.6396ZM38.8255 84.8256V84.2796H45.6715V84.8256H42.9415V90.9996H41.5415V84.8256H38.8255ZM57.3115 84.2796V90.9996H55.9115V87.8076H52.4115V90.9996H51.0115V84.2796H52.4115V87.2616H55.9115V84.2796H57.3115ZM62.6331 84.1816C64.3971 84.1816 65.9371 85.2596 65.9651 87.2196V87.7936H60.5611C60.6031 89.5016 61.5271 90.6356 62.7451 90.6356C63.6831 90.6356 64.4671 89.9216 64.6911 88.9556H65.9791C65.7551 90.2716 64.2851 91.0976 62.6891 91.0976C60.5751 91.0976 59.1751 89.6556 59.1751 87.6536C59.1751 85.6236 60.6031 84.1816 62.6331 84.1816ZM62.6471 84.6576C61.6111 84.6576 60.7151 85.6656 60.5751 87.2196H64.6911C64.6631 85.7356 63.6271 84.6576 62.6471 84.6576ZM66.8118 93.0996V90.4536H67.8338C68.1978 90.0476 68.5058 89.0116 68.6458 87.6536L68.9818 84.2796H73.7558V90.4536H74.9878V93.0996H74.0078L73.6298 90.9996H68.1698L67.7918 93.0996H66.8118ZM69.6118 87.5136C69.4578 89.1096 69.2338 89.9916 68.8978 90.4536H72.3558V84.8256H69.8638L69.6118 87.5136ZM76.6736 90.9996V84.2796H79.4876C81.4476 84.2796 82.1476 85.0776 82.1476 86.0156C82.1476 86.7436 81.7556 87.2896 80.7336 87.5276C81.9376 87.7516 82.5256 88.3536 82.5256 89.1656C82.5256 90.1876 81.5176 90.9996 79.5576 90.9996H76.6736ZM79.5576 87.8076H78.0316V90.4116H79.5576C80.5096 90.4116 81.2096 89.9216 81.2096 89.1236C81.2096 88.3396 80.5096 87.8076 79.5576 87.8076ZM79.4876 84.8816H78.0316V87.2616H79.4876C80.4396 87.2616 80.9576 86.7716 80.9576 86.0576C80.9576 85.3296 80.4396 84.8816 79.4876 84.8816ZM90.6145 84.2796V90.9996H89.2145V85.7636L85.5045 90.9996H84.3845V84.2796H85.7845V89.5436L89.4945 84.2796H90.6145ZM100.488 90.9996L98.3458 87.8076H97.7158V90.9996H96.3578V87.8076H95.7278L93.5858 90.9996H92.0318L94.9158 87.1916L92.5078 84.2796H93.5438L95.6858 87.2616H96.3578V84.2796H97.7158V87.2616H98.3878L100.53 84.2796H101.566L99.1578 87.1916L102.042 90.9996H100.488ZM109.687 84.2796V90.9996H108.287V85.7636L104.577 90.9996H103.457V84.2796H104.857V89.5436L108.567 84.2796H109.687ZM112.07 90.9996V84.2796H113.19L116.018 89.5996L118.608 84.2796H120.008V90.9996H118.608V85.6096L116.186 90.7196H115.178L112.616 85.6936V90.9996H112.07ZM121.86 87.6396C121.86 85.6236 123.302 84.1816 125.304 84.1816C127.334 84.1816 128.776 85.6656 128.776 87.6536C128.776 89.6556 127.334 91.0976 125.318 91.0976C123.302 91.0976 121.86 89.6556 121.86 87.6396ZM123.246 87.6396C123.246 89.4316 124.114 90.6356 125.318 90.6356C126.508 90.6356 127.376 89.4316 127.376 87.6396C127.376 85.8756 126.508 84.6576 125.318 84.6576C124.114 84.6576 123.246 85.8476 123.246 87.6396ZM131.491 87.6396C131.491 89.4316 132.429 90.6356 133.647 90.6356C134.543 90.6356 135.313 90.0756 135.537 88.8296H136.769C136.517 90.2996 135.159 91.0976 133.577 91.0976C131.533 91.0976 130.091 89.6556 130.091 87.6396C130.091 85.6236 131.533 84.1816 133.535 84.1816C135.131 84.1816 136.503 85.0496 136.755 86.4496H135.537C135.313 85.3576 134.557 84.6576 133.633 84.6576C132.429 84.6576 131.491 85.8616 131.491 87.6396ZM137.673 84.8256V84.2796H144.519V84.8256H141.789V90.9996H140.389V84.8256H137.673ZM146.127 90.9996V84.2796H147.485V86.9116H148.703C150.649 86.9116 151.671 87.7796 151.671 88.9556C151.671 90.1456 150.663 90.9996 148.703 90.9996H146.127ZM148.703 90.4116C149.655 90.4116 150.341 89.8516 150.341 88.9556C150.341 88.0596 149.655 87.4576 148.703 87.4576H147.485V90.4116H148.703Z" fill="#040606"/>
</g>
<defs>
<clipPath id="clip0_640_12074">
<rect width="155" height="95" fill="white"/>
</clipPath>
</defs>
</svg>
