<svg width="81" height="71" viewBox="0 0 81 71" fill="none" xmlns="http://www.w3.org/2000/svg">
<path d="M47 43C47 45.2091 45.2091 47 43 47H23C20.7909 47 19 45.2091 19 43V27.5295C19 26.2726 19.5908 25.0888 20.5951 24.3332L30.5951 16.8094C32.0193 15.7378 33.9806 15.7378 35.4048 16.8094L45.4049 24.3332C46.4092 25.0889 47 26.2726 47 27.5295V43Z" fill="#FFA000"/>
<path d="M62 43C62 45.2091 60.2091 47 58 47H42C39.7909 47 38 45.2091 38 43V4C38 1.79086 39.7909 0 42 0H58C60.2091 0 62 1.79086 62 4V43Z" fill="#6DAE6D"/>
<path d="M38 19V47H43C45.2091 47 47 45.2091 47 43V27.5646C47 26.2826 46.3855 25.0783 45.3476 24.3259L38 19Z" fill="#4E7C3C"/>
<path d="M1 47H80" stroke="black" stroke-miterlimit="10" stroke-linecap="round" stroke-linejoin="round"/>
<path d="M31.1683 56.119H32.0683C31.8163 57.46 30.7453 58.072 29.3503 58.072C27.1813 58.072 26.1373 56.614 26.1373 54.832C26.1373 53.005 27.2263 51.637 29.2693 51.637C30.6283 51.637 31.7893 52.231 31.9873 53.617H31.0873C30.9613 52.6 30.2683 51.961 29.2333 51.961C27.6943 51.961 27.0733 53.41 27.0733 54.841C27.0733 56.362 27.7933 57.748 29.2873 57.748C30.2503 57.748 30.9973 57.199 31.1683 56.119ZM33.4411 58V53.68H34.1611L35.9791 57.1L37.6441 53.68H38.5441V58H37.6441V54.535L36.0871 57.82H35.4391L33.7921 54.589V58H33.4411ZM42.0029 53.626C43.1729 53.626 43.8479 54.184 43.8479 55.192V58H43.3079L43.0919 57.415C42.7949 57.829 42.3089 58.063 41.6159 58.063C40.7429 58.063 39.9869 57.685 39.9869 56.839C39.9869 55.912 40.8959 55.561 42.0839 55.561C42.3899 55.561 42.6959 55.588 42.9749 55.633V55.21C42.9749 54.391 42.6779 53.95 41.9939 53.95C41.4089 53.95 40.9229 54.292 40.9229 54.994H40.1399C40.1399 54.094 40.9409 53.626 42.0029 53.626ZM40.8239 56.83C40.8239 57.424 41.3009 57.694 41.8409 57.694C42.5159 57.694 42.8759 57.289 42.9749 56.461V55.93C42.7769 55.903 42.5429 55.876 42.3089 55.876C41.4449 55.876 40.8239 56.146 40.8239 56.83ZM45.5517 60.25V53.68H46.1097L46.2987 54.373C46.6137 53.905 47.1177 53.617 47.7837 53.617C49.0077 53.617 49.8807 54.607 49.8807 55.858C49.8807 57.127 48.9987 58.063 47.7837 58.063C47.1987 58.063 46.7397 57.847 46.4247 57.469V60.25H45.5517ZM46.3977 55.84C46.3977 56.992 46.8747 57.739 47.6487 57.739C48.4317 57.739 48.9897 56.992 48.9897 55.849C48.9897 54.706 48.4227 53.941 47.6487 53.941C46.8657 53.941 46.3977 54.688 46.3977 55.84ZM50.5802 54.031V53.68H54.9812V54.031H53.2262V58H52.3262V54.031H50.5802ZM11.4551 63.68V68H10.5551V65.948H8.30507V68H7.40507V63.68H8.30507V65.597H10.5551V63.68H11.4551ZM15.0471 63.617C16.1811 63.617 17.1711 64.31 17.1891 65.57V65.939H13.7151C13.7421 67.037 14.3361 67.766 15.1191 67.766C15.7221 67.766 16.2261 67.307 16.3701 66.686H17.1981C17.0541 67.532 16.1091 68.063 15.0831 68.063C13.7241 68.063 12.8241 67.136 12.8241 65.849C12.8241 64.544 13.7421 63.617 15.0471 63.617ZM15.0561 63.923C14.3901 63.923 13.8141 64.571 13.7241 65.57H16.3701C16.3521 64.616 15.6861 63.923 15.0561 63.923ZM17.9044 69.35V67.649H18.5614C18.7954 67.388 18.9934 66.722 19.0834 65.849L19.2994 63.68H22.3684V67.649H23.1604V69.35H22.5304L22.2874 68H18.7774L18.5344 69.35H17.9044ZM19.7044 65.759C19.6054 66.785 19.4614 67.352 19.2454 67.649H21.4684V64.031H19.8664L19.7044 65.759ZM24.4151 68V63.68H26.2241C27.4841 63.68 27.9341 64.193 27.9341 64.796C27.9341 65.264 27.6821 65.615 27.0251 65.768C27.7991 65.912 28.1771 66.299 28.1771 66.821C28.1771 67.478 27.5291 68 26.2691 68H24.4151ZM26.2691 65.948H25.2881V67.622H26.2691C26.8811 67.622 27.3311 67.307 27.3311 66.794C27.3311 66.29 26.8811 65.948 26.2691 65.948ZM26.2241 64.067H25.2881V65.597H26.2241C26.8361 65.597 27.1691 65.282 27.1691 64.823C27.1691 64.355 26.8361 64.067 26.2241 64.067ZM33.5482 63.68V68H32.6482V64.634L30.2632 68H29.5432V63.68H30.4432V67.064L32.8282 63.68H33.5482ZM40.0663 68L38.6893 65.948H38.2843V68H37.4113V65.948H37.0063L35.6293 68H34.6303L36.4843 65.552L34.9363 63.68H35.6023L36.9793 65.597H37.4113V63.68H38.2843V65.597H38.7163L40.0933 63.68H40.7593L39.2113 65.552L41.0653 68H40.0663ZM46.1509 63.68V68H45.2509V64.634L42.8659 68H42.1459V63.68H43.0459V67.064L45.4309 63.68H46.1509ZM47.854 68V63.68H48.574L50.392 67.1L52.057 63.68H52.957V68H52.057V64.535L50.5 67.82H49.852L48.205 64.589V68H47.854ZM54.3188 65.84C54.3188 64.544 55.2458 63.617 56.5328 63.617C57.8378 63.617 58.7648 64.571 58.7648 65.849C58.7648 67.136 57.8378 68.063 56.5418 68.063C55.2458 68.063 54.3188 67.136 54.3188 65.84ZM55.2098 65.84C55.2098 66.992 55.7678 67.766 56.5418 67.766C57.3068 67.766 57.8648 66.992 57.8648 65.84C57.8648 64.706 57.3068 63.923 56.5418 63.923C55.7678 63.923 55.2098 64.688 55.2098 65.84ZM60.6808 65.84C60.6808 66.992 61.2838 67.766 62.0668 67.766C62.6428 67.766 63.1378 67.406 63.2818 66.605H64.0738C63.9118 67.55 63.0388 68.063 62.0218 68.063C60.7078 68.063 59.7808 67.136 59.7808 65.84C59.7808 64.544 60.7078 63.617 61.9948 63.617C63.0208 63.617 63.9028 64.175 64.0648 65.075H63.2818C63.1378 64.373 62.6518 63.923 62.0578 63.923C61.2838 63.923 60.6808 64.697 60.6808 65.84ZM64.8261 64.031V63.68H69.2271V64.031H67.4721V68H66.5721V64.031H64.8261ZM70.4316 68V63.68H71.3046V65.372H72.0876C73.3386 65.372 73.9956 65.93 73.9956 66.686C73.9956 67.451 73.3476 68 72.0876 68H70.4316ZM72.0876 67.622C72.6996 67.622 73.1406 67.262 73.1406 66.686C73.1406 66.11 72.6996 65.723 72.0876 65.723H71.3046V67.622H72.0876Z" fill="black"/>
</svg>
