<svg width="14" height="12" viewBox="0 0 14 12" fill="none" xmlns="http://www.w3.org/2000/svg">
<path fill-rule="evenodd" clip-rule="evenodd" d="M1.75 3C2.44036 3 3 2.44036 3 1.75C3 1.05964 2.44036 0.5 1.75 0.5C1.05964 0.5 0.5 1.05964 0.5 1.75C0.5 2.44036 1.05964 3 1.75 3ZM4.99538 1.75C4.99538 1.33579 5.33116 1 5.74538 1H12.7467C13.1609 1 13.4967 1.33579 13.4967 1.75C13.4967 2.16421 13.1609 2.5 12.7467 2.5H5.74538C5.33116 2.5 4.99538 2.16421 4.99538 1.75ZM1.75 7.25C2.44036 7.25 3 6.69036 3 6C3 5.30964 2.44036 4.75 1.75 4.75C1.05964 4.75 0.5 5.30964 0.5 6C0.5 6.69036 1.05964 7.25 1.75 7.25ZM5.74539 5.25C5.33117 5.25 4.99538 5.58579 4.99538 6C4.99538 6.41421 5.33117 6.75 5.74539 6.75H12.7467C13.1609 6.75 13.4967 6.41421 13.4967 6C13.4967 5.58579 13.1609 5.25 12.7467 5.25H5.74539ZM5.01243 10.25C5.01243 9.83579 5.34821 9.5 5.76243 9.5H12.6794C13.0936 9.5 13.4294 9.83579 13.4294 10.25C13.4294 10.6642 13.0936 11 12.6794 11H5.76243C5.34821 11 5.01243 10.6642 5.01243 10.25ZM1.75 11.5C2.44036 11.5 3 10.9404 3 10.25C3 9.55964 2.44036 9 1.75 9C1.05964 9 0.5 9.55964 0.5 10.25C0.5 10.9404 1.05964 11.5 1.75 11.5Z" fill="#99A2AD"/>
</svg>
