<svg width="16" height="22" viewBox="0 0 16 22" fill="none" xmlns="http://www.w3.org/2000/svg">
<path d="M15 19.5C15.5523 19.5 16 19.9477 16 20.5C16 21.0523 15.5523 21.5 15 21.5H1C0.447715 21.5 0 21.0523 0 20.5C0 19.9477 0.447715 19.5 1 19.5H15ZM8 0.5L8.01935 0.500186C8.04268 0.500635 8.066 0.501895 8.08925 0.503966L8 0.5C8.05062 0.5 8.10036 0.503761 8.14896 0.511019C8.16595 0.513628 8.18338 0.516702 8.20073 0.52024C8.22275 0.52464 8.24444 0.529834 8.26584 0.535721C8.28146 0.540098 8.29685 0.544729 8.31214 0.549738C8.3318 0.556123 8.35158 0.563316 8.37106 0.571104C8.3888 0.578197 8.4061 0.585679 8.42322 0.593673C8.44389 0.603377 8.46429 0.613794 8.48428 0.624876C8.49639 0.631499 8.50861 0.638607 8.52071 0.645995C8.54628 0.661719 8.57113 0.67849 8.59516 0.696314C8.63433 0.725313 8.67171 0.757499 8.70711 0.792893L8.61675 0.712786C8.61966 0.715071 8.62256 0.717372 8.62545 0.719689L8.70711 0.792893L15.7071 7.79289C16.0976 8.18342 16.0976 8.81658 15.7071 9.20711C15.3166 9.59763 14.6834 9.59763 14.2929 9.20711L9 3.914V16.5C9 17.0523 8.55228 17.5 8 17.5C7.44772 17.5 7 17.0523 7 16.5V3.914L1.70711 9.20711C1.34662 9.56759 0.779392 9.59532 0.387101 9.2903L0.292893 9.20711C-0.0976309 8.81658 -0.0976309 8.18342 0.292893 7.79289L7.29289 0.792893L7.37455 0.719689C7.37744 0.717372 7.38034 0.715071 7.38325 0.712786C7.39016 0.707284 7.3974 0.701753 7.40469 0.696335C7.42887 0.67849 7.45372 0.661719 7.47934 0.646067C7.49139 0.638607 7.50361 0.631499 7.51594 0.624671C7.53571 0.613794 7.55611 0.603377 7.5769 0.593654C7.5939 0.585679 7.6112 0.578196 7.62866 0.571225C7.64842 0.563316 7.6682 0.556123 7.68826 0.549547C7.70315 0.544729 7.71854 0.540098 7.73401 0.535845C7.75556 0.529834 7.77725 0.52464 7.79921 0.520165C7.81662 0.516702 7.83405 0.513628 7.85153 0.511018C7.8705 0.508112 7.89015 0.505766 7.90997 0.503998C7.93434 0.501866 7.95798 0.500599 7.98164 0.500168C7.9872 0.50006 7.99359 0.5 8 0.5Z" fill="#3F8AE0"/>
</svg>
