<svg width="24" height="24" viewBox="0 0 24 24" fill="none" xmlns="http://www.w3.org/2000/svg">
<path fill-rule="evenodd" clip-rule="evenodd" d="M15.0431 7.86425e-07H8.9568C8.2971 -1.79246e-05 7.73634 -3.38294e-05 7.27298 0.0419206C6.78216 0.0863615 6.31936 0.183064 5.8757 0.423855C5.21565 0.782083 4.63581 1.4145 4.33608 2.10309C4.07506 2.70273 4.04659 3.3365 4.08749 4.05703C3.46395 3.94568 2.81155 4.0041 2.23936 4.19948C1.04525 4.60722 0 5.67416 0 7.33333C0 8.90113 0.934648 10.3261 2.14924 11.3166C3.17534 12.1534 4.49791 12.7656 5.9038 12.9455C6.07342 13.348 6.25496 13.7309 6.44863 14.0926C7.16922 15.4381 8.09414 16.5449 9.2341 17.2328C9.20106 17.7864 9.12046 18.1638 9.03023 18.428C8.9186 18.7548 8.78009 18.9456 8.63005 19.1131C8.56849 19.1819 8.51574 19.2356 8.45036 19.3023C8.41589 19.3374 8.37787 19.3761 8.33325 19.4225C8.21987 19.5403 8.07798 19.6939 7.94821 19.8835C7.66019 20.3044 7.5 20.8004 7.5 21.45L7.50001 23C7.50002 23.5523 7.94773 24 8.50001 24H15.5C16.0523 24 16.5 23.5523 16.5 23L16.5 21.45C16.5 20.8004 16.3398 20.3044 16.0518 19.8835C15.922 19.6939 15.7801 19.5403 15.6667 19.4225C15.6221 19.3761 15.5842 19.3374 15.5497 19.3023C15.4843 19.2357 15.4315 19.1819 15.3699 19.1131C15.2199 18.9456 15.0814 18.7548 14.9698 18.428C14.8795 18.1638 14.7989 17.7864 14.7659 17.2327C15.9058 16.5448 16.8307 15.438 17.5512 14.0926C17.7449 13.7309 17.9264 13.348 18.0961 12.9456C19.502 12.7656 20.8246 12.1535 21.8508 11.3166C23.0654 10.3261 24 8.90113 24 7.33333C24 5.67416 22.9547 4.60722 21.7606 4.19948C21.1884 4.00409 20.5359 3.94567 19.9124 4.05705C19.9533 3.33652 19.9248 2.70274 19.6638 2.10309C19.364 1.4145 18.7842 0.782083 18.1242 0.423855C17.6805 0.183064 17.2177 0.0863615 16.7269 0.0419206C16.2635 -3.38294e-05 15.7028 -1.79246e-05 15.0431 7.86425e-07ZM12.8236 17.9389C12.5575 17.9792 12.2829 18 11.9999 18C11.717 18 11.4425 17.9792 11.1764 17.939C11.1209 18.3717 11.0352 18.7456 10.9229 19.0744C10.7064 19.7083 10.4074 20.1264 10.1199 20.4473C10.027 20.5512 9.9226 20.6577 9.8441 20.7378C9.81727 20.7651 9.79347 20.7894 9.77417 20.8095C9.68247 20.9048 9.63295 20.963 9.59867 21.0131C9.55856 21.0717 9.5 21.1663 9.5 21.45L9.5 22H14.5L14.5 21.45C14.5 21.1663 14.4414 21.0717 14.4013 21.0131C14.367 20.963 14.3175 20.9047 14.2258 20.8095C14.2191 20.8025 14.2118 20.795 14.204 20.787C14.1895 20.7721 14.1734 20.7556 14.1559 20.7378C14.0774 20.6577 13.973 20.5512 13.88 20.4473C13.5926 20.1264 13.2936 19.7083 13.0771 19.0744C12.9648 18.7456 12.8791 18.3717 12.8236 17.9389ZM20.5867 9.76669C20.0852 10.1758 19.4926 10.5067 18.8618 10.7223C19.2393 9.37089 19.5191 7.8791 19.7068 6.29017C19.957 6.04001 20.5276 5.89182 21.1144 6.09219C21.6286 6.26777 22 6.65915 22 7.33333C22 8.09886 21.518 9.00724 20.5867 9.76669ZM5.13805 10.7223C4.76055 9.37089 4.48076 7.87916 4.29305 6.2903C4.04288 6.04014 3.47243 5.89182 2.88564 6.09219C2.37141 6.26777 2 6.65915 2 7.33333C2 8.09886 2.48202 9.00724 3.41326 9.76669C3.91481 10.1757 4.50728 10.5066 5.13805 10.7223ZM6.82971 2.18165C6.94388 2.11969 7.10823 2.06502 7.45333 2.03377C7.81582 2.00095 8.28543 2 8.99993 2H14.9999C15.7144 2 16.184 2.00095 16.5465 2.03377C16.8916 2.06502 17.056 2.11969 17.1701 2.18165C17.4381 2.32709 17.7083 2.62176 17.83 2.90133C17.9587 3.19692 17.9576 3.53152 17.8378 4.90929C17.5396 8.34015 16.837 11.1898 15.7881 13.1483C14.7437 15.0985 13.4631 16 11.9999 16C10.5368 16 9.25611 15.0985 8.21172 13.1483C7.16282 11.1898 6.46022 8.34015 6.16205 4.90929C6.04231 3.53152 6.0412 3.19692 6.16987 2.90133C6.29157 2.62176 6.56173 2.32709 6.82971 2.18165Z" fill="#3F8AE0"/>
</svg>
