<svg width="20" height="24" viewBox="0 0 20 24" fill="none" xmlns="http://www.w3.org/2000/svg">
<path d="M14.2871 9.70711C13.8966 9.31658 13.2634 9.31658 12.8729 9.70711L10.0445 12.5355C9.65396 12.9261 9.65396 13.5592 10.0445 13.9497C10.435 14.3403 11.0682 14.3403 11.4587 13.9497L14.2871 11.1213C14.6776 10.7308 14.6776 10.0976 14.2871 9.70711Z" fill="#3F8AE0"/>
<path fill-rule="evenodd" clip-rule="evenodd" d="M7.58752 0C7.03524 0 6.58752 0.447715 6.58752 1C6.58752 1.55228 7.03524 2 7.58752 2H9V4.04938C3.94668 4.5511 0 8.81465 0 14C0 19.5228 4.47715 24 10 24C15.5228 24 20 19.5228 20 14C20 11.5921 19.149 9.38306 17.7313 7.6571L19.1371 6.25133C19.5276 5.8608 19.5276 5.22764 19.1371 4.83711C18.7466 4.44659 18.1134 4.44659 17.7229 4.83711L16.3145 6.24546C14.8354 5.03957 13.0048 4.24842 11 4.04938V2H12.4125C12.9648 2 13.4125 1.55228 13.4125 1C13.4125 0.447715 12.9648 0 12.4125 0H7.58752ZM2 14C2 9.58172 5.58172 6 10 6C14.4183 6 18 9.58172 18 14C18 18.4183 14.4183 22 10 22C5.58172 22 2 18.4183 2 14Z" fill="#3F8AE0"/>
</svg>
