<svg width="25" height="23" viewBox="0 0 25 23" fill="none" xmlns="http://www.w3.org/2000/svg">
<path fill-rule="evenodd" clip-rule="evenodd" d="M12.0365 0.249274C12.6367 -0.0806074 13.3639 -0.08048 13.9639 0.249613L23.9594 5.74838C24.5919 6.0963 25.0002 6.77701 25.0002 7.50075V15.0007C25.0002 15.553 24.5525 16.0007 24.0002 16.0007C23.4479 16.0007 23.0002 15.553 23.0002 15.0007V9.78077L21.0002 10.881V14.0421C21.0002 14.4671 21.0002 14.727 20.9865 14.9536C20.7575 18.7392 17.7386 21.7581 13.953 21.9871C13.636 22.0062 13.3175 22.0009 13.0001 22.0007C12.6828 22.0009 12.3643 22.0062 12.0473 21.9871C8.26175 21.7581 5.24284 18.7392 5.01385 14.9536C5.00015 14.727 5.00016 14.467 5.00017 14.0419V10.8845L2.0327 9.2534C0.650554 8.49367 0.650561 6.50776 2.03271 5.74804L12.0365 0.249274ZM7.00017 11.9839V14.0007C7.00017 14.4796 7.00063 14.6745 7.01021 14.8328C7.17813 17.6089 9.392 19.8228 12.1681 19.9907C12.3264 20.0003 12.5213 20.0007 13.0002 20.0007C13.4791 20.0007 13.674 20.0003 13.8323 19.9907C16.6083 19.8228 18.8222 17.6089 18.9901 14.8328C18.9997 14.6745 19.0002 14.4796 19.0002 14.0007V11.9813L13.9639 14.7519C13.3639 15.082 12.6367 15.0821 12.0365 14.7522L7.00017 11.9839ZM12.9999 2.00195L2.99609 7.50072L12.9999 12.9995L22.9954 7.50072L12.9999 2.00195Z" fill="#3F8AE0"/>
</svg>
