<svg width="24" height="21" viewBox="0 0 24 21" fill="none" xmlns="http://www.w3.org/2000/svg">
<path fill-rule="evenodd" clip-rule="evenodd" d="M12 1.99857C9.61053 0.545587 7.15312 -0.0399368 3.87653 0.00644839C3.82492 0.00717891 3.77367 0.0078134 3.72275 0.00844366C2.94643 0.0180536 2.24962 0.0266793 1.61161 0.359764C1.07583 0.63948 0.593326 1.12886 0.321222 1.66855C0.135931 2.03605 0.0633554 2.40875 0.0304959 2.78832C-4.12669e-05 3.14107 -2.07622e-05 3.56231 1.17229e-06 4.04139C1.76834e-06 4.05428 1.17229e-06 4.06721 1.17229e-06 4.08019V14.501C-1.25368e-05 15.0735 -2.45776e-05 15.5586 0.0296356 15.9518C0.060282 16.3581 0.127689 16.7678 0.321616 17.1522C0.618483 17.7406 1.02901 18.1565 1.61342 18.4611C2.0061 18.6658 2.44414 18.7353 2.87178 18.7702C3.29767 18.805 3.83441 18.8121 4.48147 18.8206L4.51735 18.8211C7.37687 18.8588 9.40381 19.4706 11.4453 20.8316C11.7812 21.0555 12.2188 21.0555 12.5547 20.8316C14.5962 19.4706 16.6231 18.8588 19.4826 18.8211L19.5185 18.8206C20.1656 18.8121 20.7023 18.805 21.1282 18.7702C21.5559 18.7353 21.9939 18.6658 22.3866 18.4611C22.971 18.1565 23.3815 17.7406 23.6784 17.1522C23.8723 16.7678 23.9397 16.3581 23.9704 15.9518C24 15.5586 24 15.0735 24 14.501V4.0414C24 3.56232 24 3.14107 23.9695 2.78832C23.9366 2.40875 23.8641 2.03605 23.6788 1.66855C23.4067 1.12886 22.9242 0.639481 22.3884 0.359764C21.7504 0.0266793 21.0536 0.0180536 20.2773 0.00844366C20.2263 0.0078134 20.1751 0.00717891 20.1235 0.00644839C16.8469 -0.0399368 14.3895 0.545587 12 1.99857ZM11 3.73127C8.96726 2.48514 6.88277 1.96409 3.90484 2.00625C2.8838 2.0207 2.70068 2.04735 2.5372 2.13269C2.3724 2.21873 2.19077 2.40295 2.10708 2.56895C2.07822 2.62619 2.04372 2.72197 2.02304 2.96082C2.00087 3.217 2 3.55088 2 4.08019V14.4636C2 15.0836 2.00067 15.4925 2.02397 15.8014C2.04693 16.1057 2.08672 16.2107 2.10721 16.2513C2.21544 16.4658 2.32474 16.5765 2.53781 16.6876C2.56721 16.7029 2.67902 16.7479 3.03451 16.7769C3.38391 16.8054 3.85161 16.8121 4.54372 16.8212C7.05677 16.8544 9.08407 17.2964 11 18.2588V3.73127ZM13 18.2588C14.9159 17.2964 16.9432 16.8544 19.4563 16.8212C20.1484 16.8121 20.6161 16.8054 20.9655 16.7769C21.321 16.7479 21.4328 16.7029 21.4622 16.6876C21.6753 16.5765 21.7846 16.4658 21.8928 16.2513C21.9133 16.2107 21.9531 16.1057 21.976 15.8014C21.9993 15.4925 22 15.0836 22 14.4636V4.08019C22 3.55088 21.9991 3.217 21.977 2.96082C21.9563 2.72197 21.9218 2.62619 21.8929 2.56895C21.8092 2.40295 21.6276 2.21873 21.4628 2.13269C21.2993 2.04735 21.1162 2.0207 20.0952 2.00625C17.1172 1.96409 15.0327 2.48514 13 3.73127V18.2588ZM19.9994 6.96402C20.0191 7.51595 19.5877 7.97937 19.0357 7.99909C18.0201 8.03539 17.1281 8.18189 16.3119 8.44983C15.7872 8.62211 15.2222 8.3364 15.0499 7.81167C14.8776 7.28694 15.1633 6.72191 15.6881 6.54963C16.714 6.21278 17.7967 6.0421 18.9643 6.00037C19.5162 5.98065 19.9796 6.41208 19.9994 6.96402ZM4.00064 6.96403C4.02037 6.4121 4.48379 5.98066 5.03572 6.00039C6.20326 6.04211 7.28597 6.2128 8.31194 6.54965C8.83667 6.72192 9.12238 7.28696 8.9501 7.81169C8.77782 8.33641 8.21279 8.62213 7.68806 8.44985C6.87194 8.1819 5.97993 8.03541 4.96429 7.99911C4.41235 7.97938 3.98091 7.51596 4.00064 6.96403ZM4.00064 11.964C4.02037 11.4121 4.48379 10.9807 5.03572 11.0004C6.20326 11.0421 7.28597 11.2128 8.31194 11.5496C8.83667 11.7219 9.12238 12.287 8.9501 12.8117C8.77782 13.3364 8.21279 13.6221 7.68806 13.4499C6.87194 13.1819 5.97993 13.0354 4.96429 12.9991C4.41235 12.9794 3.98091 12.516 4.00064 11.964ZM19.9994 11.964C20.0191 12.516 19.5877 12.9794 19.0357 12.9991C18.0201 13.0354 17.1281 13.1819 16.3119 13.4499C15.7872 13.6221 15.2222 13.3364 15.0499 12.8117C14.8776 12.287 15.1633 11.7219 15.6881 11.5496C16.714 11.2128 17.7967 11.0421 18.9643 11.0004C19.5162 10.9807 19.9796 11.4121 19.9994 11.964Z" fill="#3F8AE0"/>
</svg>
